<?xml version="1.0" encoding="UTF-8" standalone="no"?>
<!-- Created with Inkscape (http://www.inkscape.org/) -->

<svg
   xmlns:svg="http://www.w3.org/2000/svg"
   xmlns="http://www.w3.org/2000/svg"
   version="1.1"
   width="141.26558"
   height="145.43239"
   id="svg2816"
   xml:space="preserve"><defs
     id="defs2820" /><g
     transform="matrix(1.25,0,0,-1.25,-147.59075,566.66341)"
     id="g2826"><g
       id="g2914"><path
         d="m 226.41,449.16 c -8.199,7.869 -25.476,4.222 -44.505,-7.734 -1.955,0.201 -3.939,0.316 -5.953,0.316 -28.716,0 -51.996,-21.078 -51.996,-47.078 0,-0.247 0.016,-0.49 0.021,-0.737 11.716,18.6 27.433,31.481 41.722,35.598 -4.587,-3.86 -9.158,-8.132 -13.615,-12.777 -11.268,-11.74 -20.12,-24.098 -25.973,-35.502 -9.015,-17.566 -10.891,-32.861 -3.357,-40.092 8.081,-7.756 24.984,-4.32 43.689,7.233 3.085,-0.516 6.259,-0.799 9.509,-0.799 2.329,0 4.62,0.143 6.867,0.412 20.497,2.451 37.224,15.711 42.974,33.25 l -34.528,0 c -2.13,-6.35 -8.116,-10.931 -15.183,-10.931 -8.849,0 -16.023,7.174 -16.023,16.024 l 0,1.614 67.354,0 c 0.345,2.191 0.534,4.43 0.534,6.707 0,20.572 -14.578,38.05 -34.886,44.457 14.255,8.002 26.411,10.205 32.271,4.582 3.58,-3.436 4.334,-9.344 2.691,-16.744 l 1.897,0 c 2.264,9.68 1.298,17.586 -3.51,22.201 z M 162.895,349.086 c -14.727,-8.51 -27.354,-10.971 -33.364,-5.204 -5.225,5.014 -4.433,15.291 1.051,27.79 6.843,-11.045 18.453,-19.341 32.313,-22.586 z m -2.817,53.777 c 0.2,8.675 7.281,15.651 16.004,15.651 8.724,0 15.805,-6.976 16.004,-15.651 l -32.008,0"
         id="path2830"
         style="fill:#37a5e2;fill-opacity:1;fill-rule:nonzero;stroke:none" /><path
         d="m 218.239,351.197 c -0.874,-0.877 -1.929,-1.314 -3.168,-1.314 -1.239,0 -2.293,0.437 -3.162,1.314 -0.865,0.871 -1.298,1.928 -1.298,3.17 0,1.229 0.437,2.279 1.31,3.152 0.869,0.868 1.919,1.301 3.15,1.301 1.239,0 2.294,-0.433 3.168,-1.301 0.873,-0.869 1.31,-1.919 1.31,-3.152 0,-1.238 -0.437,-2.295 -1.31,-3.17 z m -5.894,5.883 c -0.75,-0.751 -1.124,-1.657 -1.124,-2.719 0,-1.071 0.372,-1.983 1.118,-2.738 0.749,-0.754 1.659,-1.131 2.73,-1.131 1.071,0 1.981,0.377 2.731,1.131 0.749,0.755 1.124,1.667 1.124,2.738 0,1.062 -0.375,1.968 -1.124,2.719 -0.754,0.754 -1.664,1.131 -2.731,1.131 -1.063,0 -1.971,-0.377 -2.724,-1.131 z m 2.644,-0.244 c 0.611,0 1.058,-0.059 1.343,-0.178 0.509,-0.211 0.764,-0.627 0.764,-1.246 0,-0.439 -0.16,-0.764 -0.481,-0.972 -0.171,-0.11 -0.408,-0.189 -0.712,-0.238 0.386,-0.06 0.668,-0.22 0.847,-0.479 0.178,-0.258 0.268,-0.51 0.268,-0.757 l 0,-0.357 c 0,-0.114 0.003,-0.235 0.01,-0.365 0.008,-0.129 0.021,-0.214 0.04,-0.254 l 0.028,-0.06 -0.802,0 c -0.004,0.015 -0.008,0.032 -0.012,0.049 -0.004,0.015 -0.008,0.033 -0.012,0.053 l -0.018,0.157 0,0.387 c 0,0.565 -0.156,0.937 -0.467,1.118 -0.184,0.105 -0.508,0.158 -0.971,0.158 l -0.687,0 0,-1.922 -0.859,0 0,4.906 1.721,0 z m 0.934,-0.791 c -0.219,0.121 -0.57,0.182 -1.053,0.182 l -0.743,0 0,-1.766 0.786,0 c 0.368,0 0.644,0.036 0.829,0.109 0.34,0.133 0.51,0.387 0.51,0.762 0,0.354 -0.109,0.592 -0.329,0.713"
         id="path2884"
         style="fill:#37a5e2;fill-opacity:1;fill-rule:nonzero;stroke:none" /></g></g></svg>